<svg xmlns="http://www.w3.org/2000/svg" height="800" width="1200" viewBox="-144.0312 -58 1248.2704 348"><path d="M.207 0h960c-.597 79.894 0 155.037 0 232h-960c-.429-78.514-.07-160.514 0-232z" fill="#1e1b82"/><path d="M155.587 174c-1.02-2.657.505-4.733 9.789-5.46 8.597-.672 9.425-.934 12.42-3.93 2.73-2.73 3.304-4.17 3.845-9.66 1.106-11.217.096-90.133-1.192-93.148-1.815-4.249-4.985-5.597-15.242-6.483l-9.5-.82V47.5c52.833-.559 90.14.08 99.187 0-.009 5.708.141 4.178-10.785 7.295-11.372 1.939-18.038 2.094-18.402 6.071l-.26 48.063c-.29 53.825-.344 53.364 6.76 57.522 3.299 1.93 5.084 2.048 31 2.043 25.482-.005 28.04-.168 34.862-2.217 4.048-1.216 9.448-3.554 12-5.194 7.612-4.894 17.448-16.108 22.632-25.803 2.145-4.012 3.593-5.484 6.257-6.363 2.998-.99 3.711-.892 5.272.72 1.63 1.683 1.723 2.925.958 12.863-.957 12.418-2.783 29.62-3.465 31.5-44.7.563-161.594.323-186.136 0zm202.093 0c-.953-1.543 1.45-5 3.938-5 2.905 0 11.416-3.103 14.901-5.432 1.547-1.034 4.017-4.172 5.49-6.974l2.676-5.094.352-37c.193-20.35.038-40.355-.344-44.455-.615-6.6-1.062-7.822-3.9-10.66-2.989-2.989-3.826-3.254-12.38-3.923-9.715-.76-11.59-1.722-11.032-5.657l.326-2.305 39.674-.262 39.674-.261 2.077 2.916c1.674 2.351 13.625 22.382 23.033 38.607.957 1.65 3.09 5.25 4.738 8 1.649 2.75 6.28 10.55 10.29 17.334 4.01 6.784 7.909 12.572 8.665 12.862 2.404.922 4.087-1.511 12.292-17.766 4.412-8.739 10.219-20.06 12.905-25.16 2.687-5.099 7.922-15.12 11.635-22.27 3.712-7.15 7.26-13.334 7.883-13.742.624-.407 18.91-.632 40.634-.5l39.5.242.327 2.305c.368 2.594-1.575 5.505-3.246 4.864-2.055-.789-19.147 2.055-22.37 3.722l-3.21 1.66v48.917c0 48.046.037 48.981 2.12 52.511 3.003 5.09 6.912 6.763 17.38 7.44 8.139.525 9 3.272 9 5.081 0 .219-.754-.256-47.94 0-29.915.162-48.305.604-48.908 0-2.092-2.092 1.433-5 7.288-5 3.133 0 8.025-.692 10.871-1.537 9.026-2.68 8.688-.548 8.688-54.963 0-46.334-.028-47-2-47-2.083 0-6.13 7.327-37 67a14766.62 14766.62 0 01-16.853 32.5l-4.438 9h-12.014l-18.68-31.205c-10.296-17.2-25.055-41.975-32.847-55.028-14.298-23.95-16.836-26.93-18.226-21.39-.328 1.307-.442 21.22-.254 44.25.373 45.474.435 45.997 6.122 51.24C407.441 164.56 420.061 169 424.8 169c3.318 0 6.034 3.221 4.935 5-.429.693-12.528 0-36.028 0-23.499 0-35.598.693-36.027 0zm260.878.224c-1.02-2.657.505-4.733 9.789-5.46 8.597-.672 9.425-.934 12.42-3.93 2.73-2.73 3.304-4.17 3.845-9.66 1.106-11.217.096-90.133-1.192-93.148-1.815-4.249-4.985-5.597-15.242-6.483l-9.5-.82v-6.998c52.833-.559 90.14.08 99.187 0-.009 5.708.141 4.178-10.785 7.295-11.372 1.939-18.038 2.094-18.402 6.071l-.26 48.063c-.29 53.825-.344 53.364 6.76 57.522 3.299 1.93 5.084 2.048 31 2.043 25.482-.005 28.04-.168 34.862-2.217 4.048-1.216 9.448-3.554 12-5.194 7.612-4.894 17.448-16.108 22.632-25.803 2.145-4.012 3.593-5.484 6.258-6.363 2.997-.99 3.71-.892 5.27.72 1.632 1.683 1.724 2.925.959 12.863-.957 12.418-2.783 29.62-3.465 31.5-44.7.563-161.594.323-186.136 0z" fill="#fff"/><path d="M.207 45.985l132.5.515v52l-132.5.514V45.985zm827.061 0l132.5.515v52l-132.5.514V45.985z" fill="#f90007"/><path d="M827.268 120.985l132.5.515v52l-132.5.514v-53.029zm-827.06 0l132.5.515v52l-132.5.514v-53.029z" fill="#999"/></svg>